<svg xmlns="http://www.w3.org/2000/svg" xmlns:xlink="http://www.w3.org/1999/xlink" width="20.252" height="19.651" viewBox="0 0 20.252 19.651">
  <defs>
    <linearGradient id="linear-gradient" x1="0.5" x2="1" y2="1.154" gradientUnits="objectBoundingBox">
      <stop offset="0" stop-color="#fe129a"/>
      <stop offset="1" stop-color="#5f07b8"/>
    </linearGradient>
  </defs>
  <path id="Path_45" data-name="Path 45" d="M10.126,9.493A4.552,4.552,0,0,1,5.379,4.747,4.552,4.552,0,0,1,10.126,0a4.552,4.552,0,0,1,4.747,4.747,4.552,4.552,0,0,1-4.747,4.747M0,19.651V16.676a3.483,3.483,0,0,1,.6-2.057,3.86,3.86,0,0,1,1.551-1.3A23.779,23.779,0,0,1,6.218,11.9a16.436,16.436,0,0,1,3.908-.475,15.734,15.734,0,0,1,3.892.49,26.526,26.526,0,0,1,4.048,1.414,3.824,3.824,0,0,1,1.589,1.3,3.476,3.476,0,0,1,.6,2.052v2.975Zm1.9-1.9H18.353V16.676a1.732,1.732,0,0,0-.3-.965,1.905,1.905,0,0,0-.744-.68,16.8,16.8,0,0,0-3.7-1.345,16.387,16.387,0,0,0-3.481-.364,16.832,16.832,0,0,0-3.512.364,16.072,16.072,0,0,0-3.7,1.345A1.9,1.9,0,0,0,1.9,16.676ZM10.126,7.595a2.76,2.76,0,0,0,2.848-2.848A2.76,2.76,0,0,0,10.126,1.9,2.76,2.76,0,0,0,7.278,4.747a2.76,2.76,0,0,0,2.848,2.848" fill="url(#linear-gradient)"/>
</svg>
