<svg xmlns="http://www.w3.org/2000/svg" width="34" height="34" viewBox="0 0 34 34">
  <g id="Group_62" data-name="Group 62" transform="translate(68 -343.908)">
    <rect id="Rectangle_17" data-name="Rectangle 17" width="34" height="34" rx="4" transform="translate(-68 343.908)" fill="none"/>
    <path id="icon-redo" d="M19.038,21.8V19.831H9.586a5.854,5.854,0,0,1-3.938-1.575,4.414,4.414,0,0,1-1.575-3.741,5.042,5.042,0,0,1,1.575-3.741A5.5,5.5,0,0,1,9.586,9.2h9.452l-3.544,3.938,1.378,1.378,5.907-5.907L16.872,2.7,15.493,3.881l3.741,3.741H9.783A7.763,7.763,0,0,0,4.466,9.592,6.443,6.443,0,0,0,2.3,14.712,7.076,7.076,0,0,0,9.783,21.8Z" transform="translate(-63.3 348.208)" fill="#fff"/>
  </g>
</svg>
