<svg xmlns="http://www.w3.org/2000/svg" width="34" height="34" viewBox="0 0 34 34">
  <g id="Group_61" data-name="Group 61" transform="translate(68 -286.585)">
    <rect id="Rectangle_34" data-name="Rectangle 34" width="34" height="34" rx="4" transform="translate(-68 286.585)" fill="none"/>
    <path id="icon-hand" d="M16.748,23.748H12.022C9.069,23.748,7.3,20.4,7.1,20.2l-3.151-6.7a.947.947,0,0,1,.394-1.181c.2-.2.394-.2.788,0,.985.394,1.969,2.363,2.363,3.544l.2.788,1.575-.591V4.057a1.055,1.055,0,0,1,.985-.985,1.055,1.055,0,0,1,.985.985V14.493h1.772V9.964a.985.985,0,0,1,1.969,0v4.923h1.772V11.539a.985.985,0,0,1,1.969,0v3.938H20.49V13.509a.985.985,0,1,1,1.969,0V14.69h0v3.938a6.057,6.057,0,0,1-5.71,5.12M23.64,13.9v-.394a2.816,2.816,0,0,0-2.757-2.757,1.775,1.775,0,0,0-.985.2,2.4,2.4,0,0,0-2.56-1.969,1.775,1.775,0,0,0-.985.2,2.719,2.719,0,0,0-2.56-1.969,1.775,1.775,0,0,0-.985.2V4.057A2.816,2.816,0,0,0,10.053,1.3a2.647,2.647,0,0,0-2.56,2.757v7.877a10.822,10.822,0,0,0-1.772-1.378,2.79,2.79,0,0,0-2.166.2A2.5,2.5,0,0,0,2.374,14.3l3.348,6.7c0,.2,2.363,4.529,6.5,4.529h4.726a6.809,6.809,0,0,0,6.7-6.892V13.9Z" transform="translate(-64.021 290.285)" fill="#fff"/>
  </g>
</svg>
