<svg xmlns="http://www.w3.org/2000/svg" width="34" height="34" viewBox="0 0 34 34">
  <g id="Group_66" data-name="Group 66" transform="translate(115 -343.908)">
    <g id="Group_62" data-name="Group 62" transform="translate(-1480 -549.092)">
      <rect id="Rectangle_16" data-name="Rectangle 16" width="34" height="34" rx="4" transform="translate(1365 893)" fill="none"/>
      <path id="icon-undo" d="M6.041,21.8V19.831h9.452a5.854,5.854,0,0,0,3.938-1.575,4.414,4.414,0,0,0,1.575-3.741,5.042,5.042,0,0,0-1.575-3.741A5.5,5.5,0,0,0,15.493,9.2H5.844l3.741,3.938L8.207,14.515,2.3,8.607,8.207,2.7,9.586,3.881,5.844,7.426H15.3A7.763,7.763,0,0,1,20.613,9.4,7.1,7.1,0,0,1,15.3,21.6H6.041Z" transform="translate(1369.7 897.3)" fill="#878796"/>
    </g>
  </g>
</svg>
